{
  "source": "C:\\Users\\Peter\\Desktop\\stuff\\MIUN\\quantitative_research\\video_compression\\videos\\BVI-HD\\Boxing_1920x1080_30fps.mp4",
  "output": "C:\\Users\\Peter\\Desktop\\stuff\\MIUN\\quantitative_research\\video_compression\\compressed_videos\\BVI-HD\\av1\\12\\Boxing_1920x1080_30fps_av1.mkv",
  "codec": "av1",
  "ok": "Input #0, mov,mp4,m4a,3gp,3g2,mj2, from 'C:\\Users\\Peter\\Desktop\\stuff\\MIUN\\quantitative_research\\video_compression\\videos\\BVI-HD\\Boxing_1920x1080_30fps.mp4':\n  Metadata:\n    major_brand     : isom\n    minor_version   : 512\n    compatible_brands: isomiso2avc1mp41\n    encoder         : Lavf54.28.101\n  Duration: 00:00:05.00, start: 0.000000, bitrate: 238363 kb/s\n  Stream #0:0[0x1](und): Video: h264 (High 4:4:4 Predictive) (avc1 / 0x31637661), yuv420p(progressive), 1920x1080, 238359 kb/s, 30 fps, 30 tbr, 30 tbn (default)\n    Metadata:\n      handler_name    : VideoHandler\n      vendor_id       : [0][0][0][0]\n[out#0/matroska @ 0000023e10364a00] Codec AVOption b:a (set bitrate (in bits/s)) has not been used for any stream. The most likely reason is either wrong type (e.g. a video option with no video streams) or that it is a private option of some decoder which was not actually used for any stream.\nStream mapping:\n  Stream #0:0 -> #0:0 (h264 (native) -> av1 (libsvtav1))\nPress [q] to stop, [?] for help\nSvt[info]: -------------------------------------------\nSvt[info]: SVT [version]:\tSVT-AV1 Encoder Lib v3.1.0-19-g6ecfe8ec\nSvt[info]: SVT [build]  :\tGCC 15.2.0\t 64 bit\nSvt[info]: LIB Build date: Aug 17 2025 11:37:13\nSvt[info]: -------------------------------------------\nSvt[info]: Level of Parallelism: 5\nSvt[info]: Number of PPCS 93\nSvt[info]: [asm level on system : up to avx2]\nSvt[info]: [asm level selected : up to avx2]\nSvt[info]: -------------------------------------------\nSvt[info]: SVT [config]: main profile\ttier (auto)\tlevel (auto)\nSvt[info]: SVT [config]: width / height / fps numerator / fps denominator \t\t: 1920 / 1080 / 30 / 1\nSvt[info]: SVT [config]: bit-depth / color format \t\t\t\t\t: 8 / YUV420\nSvt[info]: SVT [config]: preset / tune / pred struct \t\t\t\t\t: 4 / PSNR / random access\nSvt[info]: SVT [config]: gop size / mini-gop size / key-frame type \t\t\t: 161 / 16 / key frame\nSvt[info]: SVT [config]: BRC mode / target bitrate (kbps)\t\t\t\t: VBR / 12000 \nSvt[info]: SVT [config]: AQ mode / Variance Boost \t\t\t\t\t: 2 / 0\nSvt[info]: SVT [config]: sharpness / luminance-based QP bias \t\t\t\t: 0 / 0\nSvt[info]: SVT [config]: QP scale compress strength \t\t\t\t\t: 0\nSvt[info]: -------------------------------------------\nOutput #0, matroska, to 'C:\\Users\\Peter\\Desktop\\stuff\\MIUN\\quantitative_research\\video_compression\\compressed_videos\\BVI-HD\\av1\\12\\Boxing_1920x1080_30fps_av1.mkv':\n  Metadata:\n    major_brand     : isom\n    minor_version   : 512\n    compatible_brands: isomiso2avc1mp41\n    encoder         : Lavf62.3.100\n  Stream #0:0(und): Video: av1 (AV01 / 0x31305641), yuv420p(tv, progressive), 1920x1080, q=2-31, 12000 kb/s, 30 fps, 1k tbn (default)\n    Metadata:\n      encoder         : Lavc62.11.100 libsvtav1\n      handler_name    : VideoHandler\n      vendor_id       : [0][0][0][0]\n    Side data:\n      cpb: bitrate max/min/avg: 0/0/12000000 buffer size: 12000000 vbv_delay: N/A\nframe=    0 fps=0.0 q=0.0 size=       0KiB time=N/A bitrate=N/A speed=N/A elapsed=0:00:02.66    \nframe=    0 fps=0.0 q=0.0 size=       0KiB time=N/A bitrate=N/A speed=N/A elapsed=0:00:03.76    \nframe=    0 fps=0.0 q=0.0 size=       0KiB time=N/A bitrate=N/A speed=N/A elapsed=0:00:04.59    \nframe=    0 fps=0.0 q=0.0 size=       0KiB time=N/A bitrate=N/A speed=N/A elapsed=0:00:05.29    \nframe=    0 fps=0.0 q=0.0 size=       0KiB time=N/A bitrate=N/A speed=N/A elapsed=0:00:05.92    \nframe=    0 fps=0.0 q=0.0 size=       0KiB time=N/A bitrate=N/A speed=N/A elapsed=0:00:06.70    \nframe=    0 fps=0.0 q=0.0 size=       0KiB time=N/A bitrate=N/A speed=N/A elapsed=0:00:07.38    \nframe=    0 fps=0.0 q=0.0 size=       0KiB time=N/A bitrate=N/A speed=N/A elapsed=0:00:08.02    \nframe=    0 fps=0.0 q=0.0 size=       0KiB time=N/A bitrate=N/A speed=N/A elapsed=0:00:08.63    \nframe=    1 fps=0.1 q=5.0 size=       1KiB time=00:00:00.00 bitrate=N/A speed=   0x elapsed=0:00:09.26    \nframe=    1 fps=0.1 q=5.0 size=       1KiB time=00:00:00.00 bitrate=N/A speed=   0x elapsed=0:00:09.87    \nframe=    1 fps=0.1 q=5.0 size=       1KiB time=00:00:00.00 bitrate=N/A speed=   0x elapsed=0:00:10.53    \nframe=    1 fps=0.1 q=5.0 size=       1KiB time=00:00:00.00 bitrate=N/A speed=   0x elapsed=0:00:11.23    \nframe=    2 fps=0.2 q=19.0 size=       1KiB time=00:00:00.03 bitrate= 171.1kbits/s speed=0.00281x elapsed=0:00:11.87    \nframe=    3 fps=0.2 q=17.0 size=       1KiB time=00:00:00.06 bitrate=  85.6kbits/s speed=0.00538x elapsed=0:00:12.39    \nframe=    5 fps=0.4 q=16.0 size=       1KiB time=00:00:00.13 bitrate=  42.8kbits/s speed=0.0103x elapsed=0:00:12.95    \nframe=    6 fps=0.4 q=19.0 size=       1KiB time=00:00:00.16 bitrate=  34.2kbits/s speed=0.0123x elapsed=0:00:13.57    \nframe=    7 fps=0.5 q=16.0 size=       1KiB time=00:00:00.20 bitrate=  28.5kbits/s speed=0.0142x elapsed=0:00:14.13    \nframe=    8 fps=0.5 q=16.0 size=       1KiB time=00:00:00.23 bitrate=  24.4kbits/s speed=0.0158x elapsed=0:00:14.74    \nframe=    9 fps=0.6 q=14.0 size=       1KiB time=00:00:00.26 bitrate=  21.4kbits/s speed=0.0174x elapsed=0:00:15.36    \nframe=   11 fps=0.7 q=14.0 size=       1KiB time=00:00:00.30 bitrate=  19.0kbits/s speed=0.0189x elapsed=0:00:15.91    \nframe=   12 fps=0.7 q=14.0 size=       1KiB time=00:00:00.36 bitrate=  15.6kbits/s speed=0.0221x elapsed=0:00:16.59    \nframe=   15 fps=0.9 q=14.0 size=       1KiB time=00:00:00.43 bitrate=  13.2kbits/s speed=0.025x elapsed=0:00:17.30    \nframe=   17 fps=0.9 q=8.0 size=       1KiB time=00:00:00.53 bitrate=  10.7kbits/s speed=0.0297x elapsed=0:00:17.94    \nframe=   18 fps=1.0 q=12.0 size=       1KiB time=00:00:00.56 bitrate=  10.1kbits/s speed=0.0306x elapsed=0:00:18.52    \nframe=   20 fps=1.0 q=12.0 size=       1KiB time=00:00:00.63 bitrate=   9.0kbits/s speed=0.033x elapsed=0:00:19.17    \nframe=   22 fps=1.1 q=14.0 size=       1KiB time=00:00:00.66 bitrate=   8.6kbits/s speed=0.0337x elapsed=0:00:19.80    \nframe=   23 fps=1.1 q=13.0 size=       1KiB time=00:00:00.73 bitrate=   7.8kbits/s speed=0.036x elapsed=0:00:20.37    \nframe=   23 fps=1.1 q=13.0 size=       1KiB time=00:00:00.73 bitrate=   7.8kbits/s speed=0.0351x elapsed=0:00:20.90    \nframe=   26 fps=1.2 q=14.0 size=       1KiB time=00:00:00.83 bitrate=   6.8kbits/s speed=0.0388x elapsed=0:00:21.49    \nframe=   27 fps=1.2 q=13.0 size=       1KiB time=00:00:00.86 bitrate=   6.6kbits/s speed=0.0392x elapsed=0:00:22.13    \nframe=   28 fps=1.2 q=14.0 size=       1KiB time=00:00:00.90 bitrate=   6.3kbits/s speed=0.0395x elapsed=0:00:22.77    \nframe=   31 fps=1.3 q=14.0 size=       1KiB time=00:00:01.00 bitrate=   5.7kbits/s speed=0.0427x elapsed=0:00:23.41    \nframe=   34 fps=1.4 q=14.0 size=       1KiB time=00:00:01.10 bitrate=   5.2kbits/s speed=0.0458x elapsed=0:00:23.99    \nframe=   35 fps=1.4 q=15.0 size=       1KiB time=00:00:01.13 bitrate=   5.0kbits/s speed=0.0461x elapsed=0:00:24.59    \nframe=   37 fps=1.5 q=13.0 size=       1KiB time=00:00:01.20 bitrate=   4.8kbits/s speed=0.0477x elapsed=0:00:25.16    \nframe=   39 fps=1.5 q=13.0 size=       1KiB time=00:00:01.26 bitrate=   4.5kbits/s speed=0.0492x elapsed=0:00:25.74    \nframe=   39 fps=1.5 q=13.0 size=       1KiB time=00:00:01.26 bitrate=   4.5kbits/s speed=0.0482x elapsed=0:00:26.27    \nframe=   42 fps=1.6 q=13.0 size=       1KiB time=00:00:01.36 bitrate=   4.2kbits/s speed=0.0509x elapsed=0:00:26.83    \nframe=   44 fps=1.6 q=13.0 size=       1KiB time=00:00:01.40 bitrate=   4.1kbits/s speed=0.051x elapsed=0:00:27.44    \nframe=   47 fps=1.7 q=14.0 size=       1KiB time=00:00:01.50 bitrate=   3.8kbits/s speed=0.0534x elapsed=0:00:28.07    \nframe=   49 fps=1.7 q=3.0 size=       1KiB time=00:00:01.60 bitrate=   3.6kbits/s speed=0.0557x elapsed=0:00:28.70    \nframe=   51 fps=1.7 q=14.0 size=       1KiB time=00:00:01.66 bitrate=   3.4kbits/s speed=0.057x elapsed=0:00:29.23    \nframe=   55 fps=1.8 q=14.0 size=       1KiB time=00:00:01.70 bitrate=   3.4kbits/s speed=0.0571x elapsed=0:00:29.78    \nframe=   57 fps=1.9 q=6.0 size=       1KiB time=00:00:01.86 bitrate=   3.1kbits/s speed=0.0615x elapsed=0:00:30.35    \nframe=   57 fps=1.8 q=6.0 size=       1KiB time=00:00:01.86 bitrate=   3.1kbits/s speed=0.0601x elapsed=0:00:31.06    \nframe=   57 fps=1.8 q=6.0 size=       1KiB time=00:00:01.86 bitrate=   3.1kbits/s speed=0.0588x elapsed=0:00:31.71    \nframe=   59 fps=1.8 q=14.0 size=       1KiB time=00:00:01.93 bitrate=   3.0kbits/s speed=0.0597x elapsed=0:00:32.39    \nframe=   61 fps=1.8 q=12.0 size=       1KiB time=00:00:02.00 bitrate=   2.9kbits/s speed=0.0606x elapsed=0:00:33.00    \nframe=   63 fps=1.9 q=14.0 size=       1KiB time=00:00:02.06 bitrate=   2.8kbits/s speed=0.0613x elapsed=0:00:33.69    \nframe=   67 fps=1.9 q=15.0 size=       1KiB time=00:00:02.20 bitrate=   2.6kbits/s speed=0.064x elapsed=0:00:34.36    \nframe=   69 fps=2.0 q=13.0 size=       1KiB time=00:00:02.26 bitrate=   2.5kbits/s speed=0.0647x elapsed=0:00:35.01    \nframe=   71 fps=2.0 q=15.0 size=       1KiB time=00:00:02.33 bitrate=   2.4kbits/s speed=0.0655x elapsed=0:00:35.64    \nframe=   73 fps=2.0 q=9.0 size=       1KiB time=00:00:02.40 bitrate=   2.4kbits/s speed=0.0662x elapsed=0:00:36.25    \nframe=   73 fps=2.0 q=9.0 size=       1KiB time=00:00:02.40 bitrate=   2.4kbits/s speed=0.065x elapsed=0:00:36.91    \nframe=   75 fps=2.0 q=15.0 size=       1KiB time=00:00:02.46 bitrate=   2.3kbits/s speed=0.0652x elapsed=0:00:37.81    \nframe=   77 fps=2.0 q=13.0 size=       1KiB time=00:00:02.53 bitrate=   2.3kbits/s speed=0.0657x elapsed=0:00:38.55    \nframe=   79 fps=2.0 q=14.0 size=       1KiB time=00:00:02.60 bitrate=   2.2kbits/s speed=0.0662x elapsed=0:00:39.28    \nframe=   83 fps=2.1 q=15.0 size=       1KiB time=00:00:02.66 bitrate=   2.1kbits/s speed=0.0668x elapsed=0:00:39.92    \nframe=   85 fps=2.1 q=14.0 size=       1KiB time=00:00:02.80 bitrate=   2.0kbits/s speed=0.0689x elapsed=0:00:40.62    \nframe=   87 fps=2.1 q=15.0 size=       1KiB time=00:00:02.86 bitrate=   2.0kbits/s speed=0.0694x elapsed=0:00:41.31    \nframe=   89 fps=2.1 q=11.0 size=       1KiB time=00:00:02.93 bitrate=   1.9kbits/s speed=0.07x elapsed=0:00:41.90    \nframe=   89 fps=2.1 q=11.0 size=       1KiB time=00:00:02.93 bitrate=   1.9kbits/s speed=0.0689x elapsed=0:00:42.56    \nframe=   93 fps=2.1 q=13.0 size=       1KiB time=00:00:03.00 bitrate=   1.9kbits/s speed=0.0691x elapsed=0:00:43.43    \nframe=   93 fps=2.1 q=13.0 size=       1KiB time=00:00:03.06 bitrate=   1.9kbits/s speed=0.0692x elapsed=0:00:44.30    \nframe=   95 fps=2.1 q=14.0 size=       1KiB time=00:00:03.13 bitrate=   1.8kbits/s speed=0.0694x elapsed=0:00:45.12    \nframe=   97 fps=2.1 q=6.0 size=       1KiB time=00:00:03.20 bitrate=   1.8kbits/s speed=0.0699x elapsed=0:00:45.79    \nframe=   99 fps=2.1 q=15.0 size=       1KiB time=00:00:03.26 bitrate=   1.7kbits/s speed=0.0704x elapsed=0:00:46.43    \nframe=  101 fps=2.2 q=14.0 size=       1KiB time=00:00:03.33 bitrate=   1.7kbits/s speed=0.071x elapsed=0:00:46.94    \nframe=  101 fps=2.1 q=14.0 size=       1KiB time=00:00:03.33 bitrate=   1.7kbits/s speed=0.0702x elapsed=0:00:47.45    \nframe=  105 fps=2.2 q=11.0 size=    5120KiB time=00:00:03.46 bitrate=12099.0kbits/s speed=0.0723x elapsed=0:00:47.97    \nframe=  105 fps=2.2 q=11.0 size=    5120KiB time=00:00:03.46 bitrate=12099.0kbits/s speed=0.0715x elapsed=0:00:48.49    \nframe=  107 fps=2.2 q=14.0 size=    5120KiB time=00:00:03.53 bitrate=11870.7kbits/s speed=0.0721x elapsed=0:00:49.00    \nframe=  109 fps=2.2 q=12.0 size=    5120KiB time=00:00:03.60 bitrate=11650.8kbits/s speed=0.0727x elapsed=0:00:49.52    \nframe=  109 fps=2.2 q=12.0 size=    5120KiB time=00:00:03.60 bitrate=11650.8kbits/s speed=0.0719x elapsed=0:00:50.04    \nframe=  113 fps=2.2 q=5.0 size=    5120KiB time=00:00:03.73 bitrate=11234.7kbits/s speed=0.0738x elapsed=0:00:50.55    \nframe=  113 fps=2.2 q=5.0 size=    5120KiB time=00:00:03.73 bitrate=11234.7kbits/s speed=0.0731x elapsed=0:00:51.06    \nframe=  117 fps=2.3 q=12.0 size=    5120KiB time=00:00:03.86 bitrate=10847.3kbits/s speed=0.0749x elapsed=0:00:51.59    \nframe=  117 fps=2.2 q=12.0 size=    5120KiB time=00:00:03.86 bitrate=10847.3kbits/s speed=0.0742x elapsed=0:00:52.09    \nframe=  119 fps=2.3 q=14.0 size=    5120KiB time=00:00:03.93 bitrate=10663.5kbits/s speed=0.0748x elapsed=0:00:52.61    \nframe=  121 fps=2.3 q=11.0 size=    5120KiB time=00:00:04.00 bitrate=10485.8kbits/s speed=0.0753x elapsed=0:00:53.14    \nframe=  121 fps=2.3 q=11.0 size=    5120KiB time=00:00:04.00 bitrate=10485.8kbits/s speed=0.0746x elapsed=0:00:53.65    \nframe=  121 fps=2.2 q=11.0 size=    5120KiB time=00:00:04.00 bitrate=10485.8kbits/s speed=0.0738x elapsed=0:00:54.16    \nframe=  123 fps=2.2 q=15.0 size=    5120KiB time=00:00:04.06 bitrate=10313.9kbits/s speed=0.0744x elapsed=0:00:54.68    \nframe=  125 fps=2.3 q=14.0 size=    5120KiB time=00:00:04.13 bitrate=10147.5kbits/s speed=0.0749x elapsed=0:00:55.19    \nframe=  127 fps=2.3 q=18.0 size=    5120KiB time=00:00:04.20 bitrate=9986.4kbits/s speed=0.0754x elapsed=0:00:55.71    \nframe=  129 fps=2.3 q=5.0 size=    5120KiB time=00:00:04.26 bitrate=9830.4kbits/s speed=0.0759x elapsed=0:00:56.23    \nframe=  133 fps=2.3 q=18.0 size=    5120KiB time=00:00:04.40 bitrate=9532.5kbits/s speed=0.0775x elapsed=0:00:56.74    \nframe=  135 fps=2.4 q=17.0 size=    5120KiB time=00:00:04.46 bitrate=9390.2kbits/s speed=0.078x elapsed=0:00:57.25    \nframe=  137 fps=2.4 q=14.0 size=    5120KiB time=00:00:04.53 bitrate=9252.1kbits/s speed=0.0785x elapsed=0:00:57.77    \nframe=  139 fps=2.4 q=17.0 size=    5120KiB time=00:00:04.60 bitrate=9118.1kbits/s speed=0.0789x elapsed=0:00:58.29    \nframe=  141 fps=2.4 q=18.0 size=    5120KiB time=00:00:04.66 bitrate=8987.8kbits/s speed=0.0794x elapsed=0:00:58.80    \n[out#0/matroska @ 0000023e10364a00] video:6839KiB audio:0KiB subtitle:0KiB other streams:0KiB global headers:0KiB muxing overhead: 0.021805%\nframe=  150 fps=2.5 q=19.0 Lsize=    6840KiB time=00:00:04.96 bitrate=11282.3kbits/s speed=0.0838x elapsed=0:00:59.27    \n",
  "seconds": 61.28507423400879,
  "probe_out": {}
}